<?xml version="1.0" encoding="UTF-8" standalone="no"?>
<!-- Created with Inkscape (http://www.inkscape.org/) -->
<svg xmlns:dc="http://purl.org/dc/elements/1.1/" xmlns:cc="http://creativecommons.org/ns#" xmlns:rdf="http://www.w3.org/1999/02/22-rdf-syntax-ns#" xmlns:svg="http://www.w3.org/2000/svg" xmlns="http://www.w3.org/2000/svg" xmlns:sodipodi="http://sodipodi.sourceforge.net/DTD/sodipodi-0.dtd" xmlns:inkscape="http://www.inkscape.org/namespaces/inkscape" width="520" height="390" id="svg2" sodipodi:version="0.32" inkscape:version="0.46" version="1.0" sodipodi:docbase="C:\Dokumente und Einstellungen\dbraun\Desktop\svgImages" sodipodi:docname="Instrumentation_Amplifier_3OpAmp.svg" inkscape:output_extension="org.inkscape.output.svg.inkscape">
  <defs id="defs4"/>
  <sodipodi:namedview id="base" pagecolor="#ffffff" bordercolor="#666666" borderopacity="1.0" inkscape:pageopacity="0.0" inkscape:pageshadow="2" inkscape:zoom="1" inkscape:cx="249.15877" inkscape:cy="238.31679" inkscape:document-units="px" inkscape:current-layer="layer1" showgrid="true" inkscape:grid-points="false" gridtolerance="17.6" inkscape:grid-bbox="false" width="750px" height="500px" inkscape:object-paths="false" inkscape:window-width="902" inkscape:window-height="772" inkscape:window-x="158" inkscape:window-y="174" inkscape:guide-bbox="false" inkscape:showpageshadow="false">
    <inkscape:grid id="GridFromPre046Settings" type="xygrid" originx="0px" originy="0px" spacingx="1px" spacingy="1px" color="#0000ff" empcolor="#0000ff" opacity="0.2" empopacity="0.4" empspacing="5" visible="true" enabled="true"/>
  </sodipodi:namedview>
  <metadata id="metadata7">
    <rdf:RDF>
      <cc:Work rdf:about="">
        <dc:format>image/svg+xml</dc:format>
        <dc:type rdf:resource="http://purl.org/dc/dcmitype/StillImage"/>
      </cc:Work>
    </rdf:RDF>
  </metadata>
  <g inkscape:label="Ebene 1" inkscape:groupmode="layer" id="layer1" transform="translate(136.83403,-206.56116)">
    <g id="g2708" transform="matrix(0.3946108,0,0,0.3946108,79.046205,250.79853)">
      <path sodipodi:nodetypes="ccccccc" id="path4123" d="M 531.36759,294.45671 L 431.49194,355.5016 L 328.72312,418.43855 L 328.64626,292.42324 L 328.72312,166.40793 L 428.67559,231.37834 L 531.36759,294.45671 z" style="fill:#ffffff;fill-opacity:1;stroke:#000000;stroke-width:5.64709616;stroke-miterlimit:4;stroke-opacity:1"/>
      <rect y="191.09442" x="39.758583" height="35.027405" width="104.49142" id="rect5094" style="fill:#ffffff;fill-opacity:1;stroke:#000000;stroke-width:4.66755724;stroke-miterlimit:4;stroke-dasharray:none;stroke-opacity:1"/>
      <path id="path5096" d="M 350.56206,242.07312 L 372.47789,242.07312" style="fill:none;fill-rule:evenodd;stroke:#000000;stroke-width:5.64709616px;stroke-linecap:butt;stroke-linejoin:miter;stroke-opacity:1"/>
      <path id="path5098" d="M 350.56206,341.01988 L 372.47789,341.01988" style="fill:none;fill-rule:evenodd;stroke:#000000;stroke-width:5.64709616px;stroke-linecap:butt;stroke-linejoin:miter;stroke-opacity:1"/>
      <path id="path5100" d="M 361.51998,329.37909 L 361.51998,352.66069" style="fill:none;fill-rule:evenodd;stroke:#000000;stroke-width:5.64709616px;stroke-linecap:butt;stroke-linejoin:miter;stroke-opacity:1"/>
      <rect y="79.10199" x="357.09042" height="35.027405" width="104.49142" id="rect5112" style="fill:#ffffff;fill-opacity:1;stroke:#000000;stroke-width:4.66755724;stroke-miterlimit:4;stroke-dasharray:none;stroke-opacity:1"/>
      <path transform="matrix(4.5657936,0,0,4.8503324,611.269,412.6849)" d="M 15,37.5 A 2.5,2.5 0 1 1 10,37.5 A 2.5,2.5 0 1 1 15,37.5 z" sodipodi:ry="2.5" sodipodi:rx="2.5" sodipodi:cy="37.5" sodipodi:cx="12.5" id="path5118" style="fill:#ffffff;fill-opacity:1;stroke:#000000;stroke-width:1;stroke-miterlimit:4;stroke-dasharray:none;stroke-opacity:1" sodipodi:type="arc"/>
      <path transform="matrix(4.5657936,0,0,4.8503324,611.269,112.56925)" d="M 15,37.5 A 2.5,2.5 0 1 1 10,37.5 A 2.5,2.5 0 1 1 15,37.5 z" sodipodi:ry="2.5" sodipodi:rx="2.5" sodipodi:cy="37.5" sodipodi:cx="12.5" id="path5120" style="fill:#ffffff;fill-opacity:1;stroke:#000000;stroke-width:1;stroke-miterlimit:4;stroke-dasharray:none;stroke-opacity:1" sodipodi:type="arc"/>
      <path sodipodi:nodetypes="cc" id="path5122" d="M 143.94198,208 L 330,208" style="fill:none;fill-rule:evenodd;stroke:#000000;stroke-width:5.64709616px;stroke-linecap:butt;stroke-linejoin:miter;stroke-opacity:1"/>
      <path sodipodi:nodetypes="cc" id="path5124" d="M 37.77508,207.24469 L -379.32721,207.24469 L -379.32721,239.57168" style="fill:none;fill-rule:evenodd;stroke:#000000;stroke-width:5.64709616px;stroke-linecap:butt;stroke-linejoin:miter;stroke-opacity:1"/>
      <path id="path5130" d="M 668.34143,606.21316 L 668.34143,635.31514" style="fill:none;fill-rule:evenodd;stroke:#000000;stroke-width:5.64709616px;stroke-linecap:butt;stroke-linejoin:miter;stroke-opacity:1"/>
      <path id="path5134" d="M 651.90453,635.31514 L 684.77827,635.31514" style="fill:none;fill-rule:evenodd;stroke:#000000;stroke-width:5.64709616px;stroke-linecap:butt;stroke-linejoin:miter;stroke-opacity:1"/>
      <path id="path5143" d="M 531.36759,294.45671 L 657.3835,294.45671" style="fill:none;fill-rule:evenodd;stroke:#000000;stroke-width:5.64709616px;stroke-linecap:butt;stroke-linejoin:miter;stroke-opacity:1"/>
      <path sodipodi:nodetypes="ccc" id="path5147" d="M 602.59399,294.45671 L 602.59399,96.563183 L 461.89767,96.563183" style="fill:none;fill-rule:evenodd;stroke:#000000;stroke-width:5.64709616px;stroke-linecap:butt;stroke-linejoin:miter;stroke-opacity:1"/>
      <path transform="matrix(5.478954,0,0,5.8203977,-81.34247,-13.175113)" d="M 56,38 A 1,1 0 1 1 54,38 A 1,1 0 1 1 56,38 z" sodipodi:ry="1" sodipodi:rx="1" sodipodi:cy="38" sodipodi:cx="55" id="path5151" style="fill:#000000;fill-opacity:1;stroke:#000000;stroke-width:1;stroke-miterlimit:4;stroke-dasharray:none;stroke-opacity:1" sodipodi:type="arc"/>
      <path transform="matrix(5.478954,0,0,5.8203977,301.25149,73.281591)" d="M 56,38 A 1,1 0 1 1 54,38 A 1,1 0 1 1 56,38 z" sodipodi:ry="1" sodipodi:rx="1" sodipodi:cy="38" sodipodi:cx="55" id="path6122" style="fill:#000000;fill-opacity:0;stroke:#000000;stroke-width:1;stroke-miterlimit:4;stroke-dasharray:none;stroke-opacity:1" sodipodi:type="arc"/>
      <path sodipodi:nodetypes="cc" id="path7297" d="M 668.34143,317.73831 L 668.34143,548.04337" style="fill:none;fill-rule:evenodd;stroke:#000000;stroke-width:5.64709616px;stroke-linecap:butt;stroke-linejoin:miter;marker-end:none;stroke-opacity:1"/>
      <text transform="scale(0.970225,1.0306887)" id="text7303" y="439.27856" x="705.79315" style="font-size:33.88257217px;font-style:normal;font-weight:normal;fill:#000000;fill-opacity:1;stroke:none;stroke-width:1px;stroke-linecap:butt;stroke-linejoin:miter;stroke-opacity:1;font-family:Arial" xml:space="preserve"><tspan style="font-size:56.4709549px" y="439.27856" x="705.79315" id="tspan7305" sodipodi:role="line">U</tspan></text>
      <text transform="scale(0.970225,1.0306887)" id="text7307" y="48.51125" x="396.28448" style="font-size:56.4709549px;font-style:normal;font-weight:normal;fill:#000000;fill-opacity:1;stroke:none;stroke-width:1px;stroke-linecap:butt;stroke-linejoin:miter;stroke-opacity:1;font-family:Arial" xml:space="preserve"><tspan y="48.51125" x="396.28448" id="tspan7309" sodipodi:role="line">R</tspan></text>
      <text transform="scale(0.970225,1.0306887)" id="text7311" y="158.64143" x="63.820091" style="font-size:56.4709549px;font-style:normal;font-weight:normal;fill:#000000;fill-opacity:1;stroke:none;stroke-width:1px;stroke-linecap:butt;stroke-linejoin:miter;stroke-opacity:1;font-family:Arial" xml:space="preserve"><tspan y="158.64143" x="63.820091" id="tspan7313" sodipodi:role="line">R</tspan></text>
      <text transform="scale(0.970225,1.0306887)" id="text7323" y="446.33746" x="742.09589" style="font-size:33.88257217px;font-style:normal;font-weight:normal;fill:#000000;fill-opacity:1;stroke:none;stroke-width:1px;stroke-linecap:butt;stroke-linejoin:miter;stroke-opacity:1;font-family:Arial" xml:space="preserve"><tspan y="446.33746" x="742.09589" id="tspan7325" sodipodi:role="line">a</tspan></text>
      <path sodipodi:nodetypes="cccc" id="path3182" d="M 655,537.78531 L 669,573.78531 L 682,537.78531 C 673,546.78531 664,546.78531 655,537.78531 z" style="fill:#000000;fill-opacity:1;fill-rule:evenodd;stroke:#000000;stroke-width:1px;stroke-linecap:butt;stroke-linejoin:miter;stroke-opacity:1"/>
      <rect y="361" x="40" height="35.027405" width="104.49142" id="rect7022" style="fill:#ffffff;fill-opacity:1;stroke:#000000;stroke-width:4.66755724;stroke-miterlimit:4;stroke-dasharray:none;stroke-opacity:1"/>
      <text transform="scale(0.970225,1.0306887)" id="text7024" y="443.89322" x="67.885925" style="font-size:56.4709549px;font-style:normal;font-weight:normal;fill:#000000;fill-opacity:1;stroke:none;stroke-width:1px;stroke-linecap:butt;stroke-linejoin:miter;stroke-opacity:1;font-family:Arial" xml:space="preserve"><tspan y="443.89322" x="67.885925" id="tspan7026" sodipodi:role="line">R</tspan></text>
      <rect transform="matrix(0,1,-1,0,0,0)" y="-237.86319" x="455.5" height="35.027405" width="104.49142" id="rect7032" style="fill:#ffffff;fill-opacity:1;stroke:#000000;stroke-width:4.66755724;stroke-miterlimit:4;stroke-dasharray:none;stroke-opacity:1"/>
      <text transform="scale(0.970225,1.0306887)" id="text7034" y="509.85321" x="258.56335" style="font-size:56.4709549px;font-style:normal;font-weight:normal;fill:#000000;fill-opacity:1;stroke:none;stroke-width:1px;stroke-linecap:butt;stroke-linejoin:miter;stroke-opacity:1;font-family:Arial" xml:space="preserve"><tspan y="509.85321" x="258.56335" id="tspan7036" sodipodi:role="line">R</tspan></text>
      <path sodipodi:nodetypes="cc" id="path7046" d="M 37.550363,377.60216 L -379.27785,377.60216 L -379.27785,345.28414" style="fill:none;fill-rule:evenodd;stroke:#000000;stroke-width:5.64709616px;stroke-linecap:butt;stroke-linejoin:miter;stroke-opacity:1"/>
      <path transform="matrix(4.5657936,0,0,4.8503324,-567.51632,424.52618)" d="M 15,37.5 A 2.5,2.5 0 1 1 10,37.5 A 2.5,2.5 0 1 1 15,37.5 z" sodipodi:ry="2.5" sodipodi:rx="2.5" sodipodi:cy="37.5" sodipodi:cx="12.5" id="path7042" style="fill:#ffffff;fill-opacity:1;stroke:#000000;stroke-width:1;stroke-miterlimit:4;stroke-dasharray:none;stroke-opacity:1" sodipodi:type="arc"/>
      <path transform="matrix(4.5657936,0,0,4.8503324,-567.51632,628.24011)" d="M 15,37.5 A 2.5,2.5 0 1 1 10,37.5 A 2.5,2.5 0 1 1 15,37.5 z" sodipodi:ry="2.5" sodipodi:rx="2.5" sodipodi:cy="37.5" sodipodi:cx="12.5" id="path7044" style="fill:#ffffff;fill-opacity:1;stroke:#000000;stroke-width:1;stroke-miterlimit:4;stroke-dasharray:none;stroke-opacity:1" sodipodi:type="arc"/>
      <path id="path7048" d="M -510.4439,821.76837 L -510.4439,850.87035" style="fill:none;fill-rule:evenodd;stroke:#000000;stroke-width:5.64709616px;stroke-linecap:butt;stroke-linejoin:miter;stroke-opacity:1"/>
      <path id="path7050" d="M -526.88077,850.87035 L -494.00704,850.87035" style="fill:none;fill-rule:evenodd;stroke:#000000;stroke-width:5.64709616px;stroke-linecap:butt;stroke-linejoin:miter;stroke-opacity:1"/>
      <path sodipodi:nodetypes="cc" id="path7052" d="M -510.4439,629.69524 L -510.4439,775.20518" style="fill:none;fill-rule:evenodd;stroke:#000000;stroke-width:5.64709616px;stroke-linecap:butt;stroke-linejoin:miter;marker-end:none;stroke-opacity:1"/>
      <text transform="scale(0.970225,1.0306887)" id="text7054" y="704.89001" x="-514.81451" style="font-size:56.4709549px;font-style:normal;font-weight:normal;fill:#000000;fill-opacity:1;stroke:none;stroke-width:1px;stroke-linecap:butt;stroke-linejoin:miter;stroke-opacity:1;font-family:Arial" xml:space="preserve"><tspan y="704.89001" x="-514.81451" id="tspan7056" sodipodi:role="line">U</tspan></text>
      <text transform="scale(0.970225,1.0306887)" id="text7058" y="714.09875" x="-474.30731" style="font-size:33.88257217px;font-style:normal;font-weight:normal;fill:#000000;fill-opacity:1;stroke:none;stroke-width:1px;stroke-linecap:butt;stroke-linejoin:miter;stroke-opacity:1;font-family:Arial" xml:space="preserve"><tspan y="714.09875" x="-474.30731" id="tspan7060" sodipodi:role="line">2</tspan></text>
      <path sodipodi:nodetypes="cccc" id="path7062" d="M -524.18456,753.34052 L -510.18456,789.34052 L -497.18456,753.34052 C -506.18456,762.34052 -515.18456,762.34052 -524.18456,753.34052 z" style="fill:#000000;fill-opacity:1;fill-rule:evenodd;stroke:#000000;stroke-width:1px;stroke-linecap:butt;stroke-linejoin:miter;stroke-opacity:1"/>
      <path id="path8033" d="M 330,376 L 145,376" style="fill:none;fill-rule:evenodd;stroke:#000000;stroke-width:5.64699984;stroke-linecap:butt;stroke-linejoin:miter;stroke-miterlimit:4;stroke-dasharray:none;stroke-opacity:1"/>
      <path transform="matrix(5.478954,0,0,5.8203977,-81.34247,154.82489)" d="M 56,38 A 1,1 0 1 1 54,38 A 1,1 0 1 1 56,38 z" sodipodi:ry="1" sodipodi:rx="1" sodipodi:cy="38" sodipodi:cx="55" id="path9973" style="fill:#000000;fill-opacity:1;stroke:#000000;stroke-width:1;stroke-miterlimit:4;stroke-dasharray:none;stroke-opacity:1" sodipodi:type="arc"/>
      <path id="path9975" d="M 220.25,376 L 220.25,454.5" style="fill:none;fill-rule:evenodd;stroke:#000000;stroke-width:5.64699984;stroke-linecap:butt;stroke-linejoin:miter;stroke-miterlimit:4;stroke-dasharray:none;stroke-opacity:1"/>
      <path sodipodi:nodetypes="cc" id="path10946" d="M 220.11732,561.36679 L 220.11732,632.57537" style="fill:none;fill-rule:evenodd;stroke:#000000;stroke-width:5.64709616px;stroke-linecap:butt;stroke-linejoin:miter;stroke-opacity:1"/>
      <path sodipodi:nodetypes="cc" id="path10948" d="M 203.68045,634.69669 L 235.53885,634.69669" style="fill:none;fill-rule:evenodd;stroke:#000000;stroke-width:5.64709616px;stroke-linecap:butt;stroke-linejoin:miter;stroke-opacity:1"/>
      <path sodipodi:nodetypes="ccc" id="path10950" d="M 219.90124,208.62382 L 219.90124,96.643767 L 357.09789,96.643767" style="fill:none;fill-rule:evenodd;stroke:#000000;stroke-width:5.64709616px;stroke-linecap:butt;stroke-linejoin:miter;stroke-opacity:1"/>
      <g transform="translate(-50.937554,-71.126371)" id="g10968">
        <path style="fill:#ffffff;fill-opacity:1;stroke:#000000;stroke-width:5.64709616;stroke-miterlimit:4;stroke-opacity:1" d="M -42.666268,98.945282 L -142.54192,37.900392 L -245.31074,-25.036558 L -245.3876,100.97875 L -245.31074,226.99406 L -145.35827,162.02365 L -42.666268,98.945282 z" id="path10952" sodipodi:nodetypes="ccccccc"/>
        <path style="fill:none;fill-rule:evenodd;stroke:#000000;stroke-width:5.64709616px;stroke-linecap:butt;stroke-linejoin:miter;stroke-opacity:1" d="M -223.4718,151.32887 L -201.55597,151.32887" id="path10954"/>
        <path style="fill:none;fill-rule:evenodd;stroke:#000000;stroke-width:5.64709616px;stroke-linecap:butt;stroke-linejoin:miter;stroke-opacity:1" d="M -223.4718,52.382112 L -201.55597,52.382112" id="path10956"/>
        <path style="fill:none;fill-rule:evenodd;stroke:#000000;stroke-width:5.64709616px;stroke-linecap:butt;stroke-linejoin:miter;stroke-opacity:1" d="M -212.51388,64.022902 L -212.51388,40.741302" id="path10958"/>
      </g>
      <g transform="translate(-56.498954,83.483185)" id="g10974">
        <path style="fill:#ffffff;fill-opacity:1;stroke:#000000;stroke-width:5.64709616;stroke-miterlimit:4;stroke-opacity:1" d="M -37.00942,472.12196 L -136.88507,533.16685 L -239.65389,596.1038 L -239.73075,470.08849 L -239.65389,344.07318 L -139.70142,409.04359 L -37.00942,472.12196 z" id="path10960" sodipodi:nodetypes="ccccccc"/>
        <path style="fill:none;fill-rule:evenodd;stroke:#000000;stroke-width:5.64709616px;stroke-linecap:butt;stroke-linejoin:miter;stroke-opacity:1" d="M -217.81495,419.73837 L -195.89912,419.73837" id="path10962"/>
        <path style="fill:none;fill-rule:evenodd;stroke:#000000;stroke-width:5.64709616px;stroke-linecap:butt;stroke-linejoin:miter;stroke-opacity:1" d="M -217.81495,518.68513 L -195.89912,518.68513" id="path10964"/>
        <path style="fill:none;fill-rule:evenodd;stroke:#000000;stroke-width:5.64709616px;stroke-linecap:butt;stroke-linejoin:miter;stroke-opacity:1" d="M -206.85703,507.04434 L -206.85703,530.32594" id="path10966"/>
      </g>
      <path transform="matrix(5.478954,0,0,5.8203977,-343.54603,-13.426656)" d="M 56,38 A 1,1 0 1 1 54,38 A 1,1 0 1 1 56,38 z" sodipodi:ry="1" sodipodi:rx="1" sodipodi:cy="38" sodipodi:cx="55" id="path10980" style="fill:#000000;fill-opacity:1;stroke:#000000;stroke-width:1;stroke-miterlimit:4;stroke-dasharray:none;stroke-opacity:1" sodipodi:type="arc"/>
      <path transform="matrix(5.478954,0,0,5.8203977,-343.36925,156.92705)" d="M 56,38 A 1,1 0 1 1 54,38 A 1,1 0 1 1 56,38 z" sodipodi:ry="1" sodipodi:rx="1" sodipodi:cy="38" sodipodi:cx="55" id="path10982" style="fill:#000000;fill-opacity:1;stroke:#000000;stroke-width:1;stroke-miterlimit:4;stroke-dasharray:none;stroke-opacity:1" sodipodi:type="arc"/>
      <rect transform="matrix(0,1,-1,0,0,0)" y="361.46655" x="240.38673" height="35.027405" width="104.49142" id="rect10984" style="fill:#ffffff;fill-opacity:1;stroke:#000000;stroke-width:4.66755724;stroke-miterlimit:4;stroke-dasharray:none;stroke-opacity:1"/>
      <rect y="190.94528" x="-227.38535" height="35.027405" width="104.49142" id="rect10986" style="fill:#ffffff;fill-opacity:1;stroke:#000000;stroke-width:4.66755724;stroke-miterlimit:4;stroke-dasharray:none;stroke-opacity:1"/>
      <rect y="360.29736" x="-227.38535" height="35.027405" width="104.49142" id="rect10988" style="fill:#ffffff;fill-opacity:1;stroke:#000000;stroke-width:4.66755724;stroke-miterlimit:4;stroke-dasharray:none;stroke-opacity:1"/>
      <text transform="scale(0.970225,1.0306887)" id="text10990" y="161.02477" x="-203.3835" style="font-size:56.4709549px;font-style:normal;font-weight:normal;fill:#000000;fill-opacity:1;stroke:none;stroke-width:1px;stroke-linecap:butt;stroke-linejoin:miter;stroke-opacity:1;font-family:Arial" xml:space="preserve"><tspan y="161.02477" x="-203.3835" id="tspan10992" sodipodi:role="line">R</tspan></text>
      <text transform="scale(0.970225,1.0306887)" id="text10994" y="168.52216" x="102.8784" style="font-size:33.88257217px;font-style:normal;font-weight:normal;fill:#000000;fill-opacity:1;stroke:none;stroke-width:1px;stroke-linecap:butt;stroke-linejoin:miter;stroke-opacity:1;font-family:Arial" xml:space="preserve"><tspan y="168.52216" x="102.8784" id="tspan10996" sodipodi:role="line">2</tspan></text>
      <path id="path10998" d="M -93.115247,27.439645 L -42.20356,27.439645 L -42.20356,207.39832" style="fill:none;fill-rule:evenodd;stroke:#000000;stroke-width:5.64699984;stroke-linecap:butt;stroke-linejoin:miter;stroke-miterlimit:4;stroke-dasharray:none;stroke-opacity:1"/>
      <path id="path11969" d="M -92.938623,555.86177 L -42.026936,555.86177 L -42.026936,375.90309" style="fill:none;fill-rule:evenodd;stroke:#000000;stroke-width:5.64699984;stroke-linecap:butt;stroke-linejoin:miter;stroke-miterlimit:4;stroke-dasharray:none;stroke-opacity:1"/>
      <path sodipodi:nodetypes="ccc" id="path11977" d="M -298.353,80.295878 L -379.31672,80.295878 L -379.31672,205.10022" style="fill:none;fill-rule:evenodd;stroke:#000000;stroke-width:5.64699984;stroke-linecap:butt;stroke-linejoin:miter;stroke-miterlimit:4;stroke-dasharray:none;stroke-opacity:1"/>
      <path sodipodi:nodetypes="ccc" id="path11979" d="M -298.52977,502.08507 L -379.49349,502.08507 L -379.49349,377.28073" style="fill:none;fill-rule:evenodd;stroke:#000000;stroke-width:5.64699984;stroke-linecap:butt;stroke-linejoin:miter;stroke-miterlimit:4;stroke-dasharray:none;stroke-opacity:1"/>
      <path transform="matrix(5.478954,0,0,5.8203977,-680.65918,156.9453)" d="M 56,38 A 1,1 0 1 1 54,38 A 1,1 0 1 1 56,38 z" sodipodi:ry="1" sodipodi:rx="1" sodipodi:cy="38" sodipodi:cx="55" id="path11981" style="fill:#000000;fill-opacity:1;stroke:#000000;stroke-width:1;stroke-miterlimit:4;stroke-dasharray:none;stroke-opacity:1" sodipodi:type="arc"/>
      <path transform="matrix(5.478954,0,0,5.8203977,-680.48242,-13.776788)" d="M 56,38 A 1,1 0 1 1 54,38 A 1,1 0 1 1 56,38 z" sodipodi:ry="1" sodipodi:rx="1" sodipodi:cy="38" sodipodi:cx="55" id="path11983" style="fill:#000000;fill-opacity:1;stroke:#000000;stroke-width:1;stroke-miterlimit:4;stroke-dasharray:none;stroke-opacity:1" sodipodi:type="arc"/>
      <text transform="scale(0.970225,1.0306887)" id="text11993" y="438.19006" x="-201.92589" style="font-size:56.4709549px;font-style:normal;font-weight:normal;fill:#000000;fill-opacity:1;stroke:none;stroke-width:1px;stroke-linecap:butt;stroke-linejoin:miter;stroke-opacity:1;font-family:Arial" xml:space="preserve"><tspan y="438.19006" x="-201.92589" id="tspan11995" sodipodi:role="line">R</tspan></text>
      <text transform="scale(0.970225,1.0306887)" id="text11997" y="449.88742" x="113.18528" style="font-size:33.88257217px;font-style:normal;font-weight:normal;fill:#000000;fill-opacity:1;stroke:none;stroke-width:1px;stroke-linecap:butt;stroke-linejoin:miter;stroke-opacity:1;font-family:Arial" xml:space="preserve"><tspan y="449.88742" x="113.18528" id="tspan11999" sodipodi:role="line">2</tspan></text>
      <text transform="scale(0.970225,1.0306887)" id="text12001" y="301.12003" x="-359.15414" style="font-size:56.4709549px;font-style:normal;font-weight:normal;fill:#000000;fill-opacity:1;stroke:none;stroke-width:1px;stroke-linecap:butt;stroke-linejoin:miter;stroke-opacity:1;font-family:Arial" xml:space="preserve"><tspan y="301.12003" x="-359.15414" id="tspan12003" sodipodi:role="line">R</tspan></text>
      <text transform="scale(0.970225,1.0306887)" id="text12005" y="311.20413" x="-317.8093" style="font-size:33.88257217px;font-style:normal;font-weight:normal;fill:#000000;fill-opacity:1;stroke:none;stroke-width:1px;stroke-linecap:butt;stroke-linejoin:miter;stroke-opacity:1;font-family:Arial" xml:space="preserve"><tspan y="311.20413" x="-317.8093" id="tspan12007" sodipodi:role="line">gain</tspan></text>
      <path transform="matrix(4.5657936,0,0,4.8503324,-567.99681,-200.13788)" d="M 15,37.5 A 2.5,2.5 0 1 1 10,37.5 A 2.5,2.5 0 1 1 15,37.5 z" sodipodi:ry="2.5" sodipodi:rx="2.5" sodipodi:cy="37.5" sodipodi:cx="12.5" id="path12009" style="fill:#ffffff;fill-opacity:1;stroke:#000000;stroke-width:1;stroke-miterlimit:4;stroke-dasharray:none;stroke-opacity:1" sodipodi:type="arc"/>
      <path transform="matrix(4.5657936,0,0,4.8503324,-567.99681,3.5760526)" d="M 15,37.5 A 2.5,2.5 0 1 1 10,37.5 A 2.5,2.5 0 1 1 15,37.5 z" sodipodi:ry="2.5" sodipodi:rx="2.5" sodipodi:cy="37.5" sodipodi:cx="12.5" id="path12011" style="fill:#ffffff;fill-opacity:1;stroke:#000000;stroke-width:1;stroke-miterlimit:4;stroke-dasharray:none;stroke-opacity:1" sodipodi:type="arc"/>
      <path id="path12013" d="M -510.92439,197.10431 L -510.92439,226.20629" style="fill:none;fill-rule:evenodd;stroke:#000000;stroke-width:5.64709616px;stroke-linecap:butt;stroke-linejoin:miter;stroke-opacity:1"/>
      <path id="path12015" d="M -527.36126,226.20629 L -494.48753,226.20629" style="fill:none;fill-rule:evenodd;stroke:#000000;stroke-width:5.64709616px;stroke-linecap:butt;stroke-linejoin:miter;stroke-opacity:1"/>
      <path sodipodi:nodetypes="cc" id="path12017" d="M -510.92439,5.0311826 L -510.92439,150.54112" style="fill:none;fill-rule:evenodd;stroke:#000000;stroke-width:5.64709616px;stroke-linecap:butt;stroke-linejoin:miter;marker-end:none;stroke-opacity:1"/>
      <text transform="scale(0.970225,1.0306887)" id="text12019" y="98.825371" x="-515.30975" style="font-size:56.4709549px;font-style:normal;font-weight:normal;fill:#000000;fill-opacity:1;stroke:none;stroke-width:1px;stroke-linecap:butt;stroke-linejoin:miter;stroke-opacity:1;font-family:Arial" xml:space="preserve"><tspan y="98.825371" x="-515.30975" id="tspan12021" sodipodi:role="line">U</tspan></text>
      <text transform="scale(0.970225,1.0306887)" id="text12023" y="107.7081" x="-474.30731" style="font-size:33.88257217px;font-style:normal;font-weight:normal;fill:#000000;fill-opacity:1;stroke:none;stroke-width:1px;stroke-linecap:butt;stroke-linejoin:miter;stroke-opacity:1;font-family:Arial" xml:space="preserve"><tspan y="107.7081" x="-474.30731" id="tspan12025" sodipodi:role="line">1</tspan></text>
      <path sodipodi:nodetypes="cccc" id="path12027" d="M -524.66505,128.67646 L -510.66505,164.67646 L -497.66505,128.67646 C -506.66505,137.67646 -515.66505,137.67646 -524.66505,128.67646 z" style="fill:#000000;fill-opacity:1;fill-rule:evenodd;stroke:#000000;stroke-width:1px;stroke-linecap:butt;stroke-linejoin:miter;stroke-opacity:1"/>
      <path id="path12051" d="M -499.34809,-18.168743 L -297.46911,-18.168743" style="fill:none;fill-rule:evenodd;stroke:#000000;stroke-width:5.64699984;stroke-linecap:butt;stroke-linejoin:miter;stroke-miterlimit:4;stroke-dasharray:none;stroke-opacity:1"/>
      <path id="path13022" d="M -501.29263,605.85299 L -299.41365,605.85299" style="fill:none;fill-rule:evenodd;stroke:#000000;stroke-width:5.64699984;stroke-linecap:butt;stroke-linejoin:miter;stroke-miterlimit:4;stroke-dasharray:none;stroke-opacity:1"/>
      <text xml:space="preserve" style="font-size:33.88257217px;font-style:normal;font-weight:normal;fill:#000000;fill-opacity:1;stroke:none;stroke-width:1px;stroke-linecap:butt;stroke-linejoin:miter;stroke-opacity:1;font-family:Arial" x="298.70926" y="517.80316" id="text2482" transform="scale(0.970225,1.0306887)"><tspan sodipodi:role="line" id="tspan2484" x="298.70926" y="517.80316">3</tspan></text>
      <text transform="scale(0.970225,1.0306887)" id="text2486" y="61.797398" x="443.00568" style="font-size:33.88257217px;font-style:normal;font-weight:normal;fill:#000000;fill-opacity:1;stroke:none;stroke-width:1px;stroke-linecap:butt;stroke-linejoin:miter;stroke-opacity:1;font-family:Arial" xml:space="preserve"><tspan y="61.797398" x="443.00568" id="tspan2488" sodipodi:role="line">3</tspan></text>
    </g>
  </g>
</svg>